<svg xmlns="http://www.w3.org/2000/svg" width="294" height="343" viewBox="0 0 294 343"><g transform="translate(146.94,113.00) scale(1.1851) translate(-18.0,2.85)"><rect x="-14" y="-56" width="28" height="96" rx="6" fill="#2563eb" transform="rotate(12)"/><rect x="-14" y="26" width="72" height="26" rx="6" fill="#0f172a"/></g><g transform="translate(48.00,295.00)"><path transform="translate(0.00,0) scale(0.048828,-0.048828)" d="M368 1490V0H148V1490Z" fill="#0f172a"/>
<path transform="translate(24.20,0) scale(0.048828,-0.048828)" d="M630 -23Q465 -23 345.0 48.0Q225 119 160.5 248.0Q96 377 96 551Q96 723 159.5 854.0Q223 985 339.0 1058.5Q455 1132 611 1132Q707 1132 796.0 1100.5Q885 1069 956.0 1002.0Q1027 935 1068.5 828.5Q1110 722 1110 570V492H219V656H997L894 602Q894 705 862.0 783.5Q830 862 767.5 906.0Q705 950 611 950Q518 950 452.0 905.0Q386 860 351.5 786.5Q317 713 317 626V514Q317 399 356.5 319.5Q396 240 467.0 199.5Q538 159 632 159Q694 159 744.0 176.5Q794 194 830.5 229.5Q867 265 886 317L1093 268Q1066 182 1002.5 116.0Q939 50 844.5 13.5Q750 -23 630 -23Z" fill="#0f172a"/>
<path transform="translate(81.94,0) scale(0.048828,-0.048828)" d="M461 -25Q355 -25 269.0 14.5Q183 54 133.0 130.0Q83 206 83 316Q83 411 119.5 472.0Q156 533 218.5 569.0Q281 605 357.5 623.0Q434 641 513 650Q612 662 674.0 669.5Q736 677 765.5 694.5Q795 712 795 751V757Q795 820 771.0 863.0Q747 906 699.5 929.5Q652 953 581 953Q508 953 455.5 930.5Q403 908 370.5 873.0Q338 838 322 800L115 854Q153 954 224.0 1015.0Q295 1076 387.0 1104.0Q479 1132 577 1132Q645 1132 721.0 1116.0Q797 1100 864.0 1058.0Q931 1016 973.0 940.0Q1015 864 1015 742V0H802V153H791Q769 110 726.0 69.0Q683 28 617.5 1.5Q552 -25 461 -25ZM510 152Q600 152 664.0 187.0Q728 222 762.0 280.0Q796 338 796 403V546Q784 534 750.5 524.5Q717 515 674.0 507.5Q631 500 591.0 495.0Q551 490 525 487Q463 479 411.5 460.0Q360 441 329.5 406.0Q299 371 299 313Q299 260 326.5 224.0Q354 188 401.0 170.0Q448 152 510 152Z" fill="#0f172a"/>
<path transform="translate(137.72,0) scale(0.048828,-0.048828)" d="M368 662V0H148V1118H358L360 844H337Q386 994 479.0 1063.0Q572 1132 704 1132Q818 1132 903.0 1084.0Q988 1036 1036.0 942.5Q1084 849 1084 710V0H864V683Q864 804 801.0 872.0Q738 940 628 940Q554 940 495.0 907.5Q436 875 402.0 813.0Q368 751 368 662Z" fill="#0f172a"/></g></svg>